PathFileType	4	(X/Y/Z)	D:\TRACE\spotREDO_2-26-24\spot_justArm_Motion_1_5-v60.trc
DataRate	CameraRate	NumFrames	NumMarkers	Units	OrigDataRate	OrigDataStartFrame	OrigNumFrames
100.00	100.00	      42	9	mm	100.00	1751	      7000
Frame#	Time	front left toe			Front right toe			aft left toe			aft right toe			Arm			FL body			FR body			AL Body			AR Body			
		X1	Y1	Z1	X2	Y2	Z2	X3	Y3	Z3	X4	Y4	Z4	X5	Y5	Z5	X6	Y6	Z6	X7	Y7	Z7	X8	Y8	Z8	X9	Y9	Z9	

1751	17.500	-256.07486	13.82218	-162.90672	172.32303	17.14485	-142.43657	-277.37064	30.27776	459.36395	140.21332	35.27720	416.42932	-96.96036	682.93427	-811.25476	-128.72470	549.10876	-219.54643	27.18845	552.94092	-215.20619	-161.19240	565.84198	664.06012	-13.34476	565.41528	669.74060	
1752	17.510	-255.14674	13.58941	-163.07361	173.05891	17.12179	-142.42300	-276.63605	30.63274	459.32974	141.27786	35.44081	416.32318	-96.75449	682.89734	-811.38977	-128.10971	548.96716	-219.60313	27.80256	552.66864	-215.34203	-160.40855	566.12842	663.90295	-12.91001	565.55280	669.58868	
1753	17.520	-254.59871	13.56231	-163.12538	173.78986	16.89706	-142.56485	-275.97916	30.98882	459.18961	141.88737	35.60258	416.22543	-96.43269	682.88068	-811.58282	-127.43816	548.65405	-219.67931	28.26368	552.47107	-215.49684	-160.13754	566.28387	663.37463	-12.19899	565.94586	669.55078	
1754	17.530	-253.63106	13.38662	-162.92358	174.68544	16.99136	-142.38354	-275.03262	31.00632	459.23822	142.58688	35.85121	416.20065	-96.08668	682.81567	-811.63745	-126.84903	548.50439	-219.75928	29.00596	552.30286	-215.59843	-159.11264	566.68549	663.61371	-11.44182	566.30884	669.27551	
1755	17.540	-252.59628	13.13560	-162.94859	175.42476	17.20505	-142.37267	-274.27527	31.22225	459.15231	143.30840	35.97834	416.07568	-95.80897	682.64355	-811.89270	-126.08662	548.19177	-219.98039	29.79168	552.12427	-215.70296	-158.84888	566.82831	662.91974	-10.65540	566.54834	669.09369	
1756	17.550	-251.96358	13.21850	-163.18315	176.18054	16.96170	-142.71539	-273.26279	31.33599	459.22052	144.65359	36.51452	416.10870	-95.35770	682.44501	-812.02814	-125.46602	547.87628	-220.12056	30.61928	552.05524	-215.79007	-158.02524	567.10779	662.85498	-10.06823	567.06097	669.08606	
1757	17.560	-251.02789	13.01475	-163.22873	177.00702	17.12629	-142.61731	-272.61081	31.54814	459.20825	145.01965	36.56932	415.94724	-95.13449	682.34369	-812.19202	-124.81599	547.64276	-220.15547	31.15522	551.73291	-216.05951	-157.17645	567.66772	662.81555	-9.71458	567.60974	668.79218	
1758	17.570	-250.29462	12.88534	-163.24339	177.81470	16.37164	-143.15172	-271.53836	31.84798	459.15112	146.21820	36.85283	415.86053	-94.84947	682.35260	-812.22778	-124.30219	547.50415	-220.43628	31.75049	551.41132	-216.13063	-156.26247	568.04010	662.86902	-8.60762	567.75793	668.68347	
1759	17.580	-249.42139	12.77620	-163.39705	179.22823	16.64192	-142.70161	-270.54190	31.99969	458.83920	147.53445	37.34454	415.85355	-94.49605	682.28326	-812.28137	-123.40056	547.18359	-220.57407	32.62650	550.99359	-216.10469	-155.69363	568.34375	662.56543	-7.71022	568.16815	668.51190	
1760	17.590	-248.62483	12.81282	-163.52769	179.57834	16.22256	-142.81496	-269.83325	32.37051	458.85046	147.73781	37.37815	415.67322	-94.24972	682.26666	-812.27228	-122.63341	546.84583	-220.67249	33.41943	550.91266	-216.49353	-155.01151	568.77008	662.26880	-7.13712	568.59924	668.36707	
1761	17.600	-247.63136	12.65565	-163.43117	180.68715	15.89704	-143.42349	-268.84482	32.55151	458.78561	148.97159	37.81948	415.66574	-93.57034	682.17871	-812.24146	-121.78467	546.47363	-220.70964	34.03624	550.79523	-216.60568	-153.92700	569.32373	662.38013	-6.18773	568.92609	668.25104	
1762	17.610	-246.58395	12.49837	-163.40097	181.83766	17.00906	-142.82521	-268.01694	32.79902	458.75946	149.89612	37.91279	415.44363	-93.16416	682.19641	-812.56622	-121.03812	546.41595	-220.79831	34.87117	550.66553	-216.67184	-153.11055	569.61420	662.35382	-5.50925	569.34119	668.05115	
1763	17.620	-246.07056	12.64357	-163.30542	182.23631	16.05776	-143.50952	-267.13113	33.10720	458.49451	150.39139	37.98265	415.32840	-92.73418	682.13861	-812.71692	-120.05460	546.20490	-220.95288	35.39360	550.42456	-216.84616	-152.45355	569.74347	662.02618	-4.46060	569.73535	667.82300	
1764	17.630	-244.82822	12.19899	-163.56084	183.28699	16.18702	-143.30339	-266.37204	33.39571	458.47281	151.51048	38.17023	415.23447	-92.19846	682.14069	-812.59827	-119.62292	546.25031	-221.25839	36.43259	550.17767	-217.04916	-151.24681	570.00720	662.16852	-3.58660	569.87115	667.83411	
1765	17.640	-244.24695	12.11909	-163.55159	184.03914	16.03296	-143.45386	-265.35333	33.60775	458.58609	152.36632	38.37908	415.12308	-91.67577	682.27960	-812.65070	-118.69607	546.04657	-221.41719	37.04713	549.97595	-217.25711	-150.49940	570.35480	661.95447	-2.86030	570.30267	667.66052	
1766	17.650	-243.31787	12.12667	-163.77708	185.31444	15.93456	-143.57156	-264.66614	33.63065	458.24622	152.98058	38.42923	414.95361	-91.26852	682.31439	-812.69452	-118.00147	545.87042	-221.43454	37.76862	549.81934	-217.38383	-149.54164	570.76501	661.82007	-1.91587	570.64612	667.48291	
1767	17.660	-242.30121	12.15994	-163.90237	185.87468	15.63142	-144.06276	-263.62607	33.78208	458.09528	154.13441	38.47377	414.99976	-90.73939	682.35504	-812.77277	-116.92084	545.56097	-221.56342	38.87556	549.67731	-217.38811	-149.28809	570.98145	661.39362	-1.13643	570.94977	667.41168	
1768	17.670	-241.48531	12.07812	-164.28203	186.57950	16.09815	-143.68399	-262.36780	33.89584	458.75421	155.29659	38.70807	414.99847	-90.07531	682.20709	-812.66034	-116.26105	545.19891	-221.69746	39.46851	549.57129	-217.61089	-147.83044	571.54041	661.61792	-0.24045	571.27637	667.32245	
1769	17.680	-240.39465	11.68418	-163.70981	188.02409	15.84185	-143.60719	-261.78244	34.45579	457.93591	155.54871	38.67293	414.83447	-89.56319	682.24194	-812.12811	-115.63637	544.76068	-221.89201	40.46066	548.78558	-217.80141	-147.22873	571.87634	661.40759	0.57971	572.08533	666.96136	
1770	17.690	-239.39265	11.58250	-163.79414	188.67377	15.50606	-143.97417	-260.62079	34.48877	457.98547	157.39902	39.34286	414.72754	-88.76255	681.84351	-810.30975	-114.65405	543.85303	-222.21611	40.96825	548.10663	-218.20410	-146.67633	572.71509	660.64844	1.29512	572.77228	666.46045	
1771	17.700	-238.46243	11.65389	-163.95313	189.85980	15.57057	-143.92281	-259.63669	34.87463	457.72006	158.06894	39.46569	414.59338	-87.56332	681.53003	-807.56067	-113.94620	542.88837	-222.54083	41.96759	547.27155	-218.47064	-145.48050	573.03998	660.06848	2.30568	573.48309	666.22150	
1772	17.710	-237.74367	11.70209	-164.21803	190.55371	15.53923	-143.74055	-258.95850	34.83699	457.86743	158.62242	39.49740	414.52539	-86.27161	681.50067	-804.22180	-112.99377	542.09424	-222.85489	42.87043	546.57117	-218.70053	-144.79480	573.99829	660.00513	3.02106	574.16998	665.81390	
1773	17.720	-236.77600	11.50244	-163.93214	191.44470	15.53725	-143.66772	-257.76627	34.99096	457.87256	160.11751	39.88624	414.54221	-84.83068	681.84015	-801.21686	-111.86667	541.58533	-223.29657	43.84518	546.09247	-219.16621	-144.20949	574.24823	659.46515	3.89317	574.41028	665.47974	
1774	17.730	-235.92136	11.26233	-164.24245	192.33374	15.82969	-143.54141	-256.89484	35.06309	457.65509	160.53696	39.93390	414.46106	-83.92418	682.97546	-798.78607	-111.20650	541.44934	-223.54469	44.77666	545.67615	-219.42113	-143.28203	574.26190	659.39532	4.56500	574.55426	665.08978	
1775	17.740	-234.71265	11.31048	-164.18475	193.50587	15.38756	-143.94859	-256.27356	35.26997	457.65952	161.61143	40.15256	414.35974	-83.55561	684.62665	-797.60492	-110.25864	541.44666	-223.86633	45.72581	545.42944	-219.58344	-142.55519	574.35474	659.17334	5.30835	574.52679	664.84534	
1776	17.750	-233.75302	11.52626	-164.36922	194.47227	15.36839	-143.95183	-255.19977	35.12505	457.66174	162.92012	40.36409	414.51901	-82.92896	686.06317	-796.75995	-109.06458	541.32294	-223.89957	46.62591	545.43213	-219.62808	-141.93394	574.44922	658.90491	5.91035	574.42908	664.81885	
1777	17.760	-232.69997	11.50345	-164.37314	195.24547	15.35211	-143.86407	-254.16980	35.23373	457.56226	163.51114	40.40046	414.43130	-82.43552	687.71710	-796.51166	-108.11314	541.58209	-223.95966	47.88656	545.45990	-219.69760	-141.09814	574.51471	658.65985	6.82050	574.49249	664.80585	
1778	17.770	-231.79942	11.49896	-164.43709	196.47737	15.42255	-143.95915	-253.61902	35.60741	457.55966	164.44154	40.55440	414.25839	-81.86891	689.35608	-796.68170	-107.07466	541.69891	-223.87901	48.72191	545.70300	-219.72116	-140.22554	574.64636	658.78912	7.68528	574.56866	664.87488	
1779	17.780	-231.07748	11.70378	-164.56165	197.16769	15.54120	-143.90388	-252.43698	35.59803	457.36020	165.33263	40.57390	414.05835	-81.87631	690.99396	-797.65625	-105.93137	541.74487	-223.96425	49.78697	545.82507	-219.71466	-139.03430	575.03522	659.00714	8.46872	574.72101	664.94891	
1780	17.790	-229.92075	11.71063	-164.69740	198.25635	15.47407	-143.72057	-251.46928	35.71266	457.25867	166.13521	40.69563	414.09402	-81.48488	692.13196	-797.96259	-105.14182	541.90601	-223.99895	50.61484	545.79449	-219.64360	-138.57863	575.18835	658.75311	9.48425	574.86615	664.98395	
1781	17.800	-228.85577	11.43719	-164.65817	199.76872	16.06128	-143.27240	-250.58981	36.11532	457.12518	167.54182	40.81351	414.14023	-81.01048	693.22510	-798.53070	-104.12107	541.83179	-224.03329	51.83358	545.65625	-219.61183	-137.34140	575.42456	659.03027	10.21849	575.04779	664.87341	
1782	17.810	-227.95549	11.19776	-164.55298	200.06549	15.53365	-144.10205	-249.51282	36.17402	457.09836	168.38815	40.76566	414.07840	-80.71874	693.80280	-799.10083	-103.06643	541.63684	-224.00363	52.57786	545.40826	-219.52567	-136.24730	575.51971	658.85126	11.06455	575.22559	664.81580	
1783	17.820	-226.91751	11.13465	-164.57021	201.24124	15.33538	-144.27737	-248.60672	36.30601	457.01373	169.03606	40.81435	414.01599	-80.08665	693.99847	-799.23096	-102.11429	541.40784	-224.00291	53.60257	545.37042	-219.87675	-135.49355	575.67096	658.42456	12.55960	575.37836	664.67700	
1784	17.830	-226.03326	10.98020	-164.71793	202.19971	15.34936	-144.24448	-247.48270	36.39298	457.08386	170.60571	41.13939	413.97540	-79.61745	694.24994	-799.30737	-101.35574	541.58905	-224.11937	54.45832	545.28876	-220.01785	-134.14528	575.85120	658.60742	13.58328	575.41992	664.54364	
1785	17.840	-225.12885	11.10823	-164.78667	202.97797	15.23422	-144.17952	-246.51929	36.50631	457.24579	170.89050	41.04345	413.83578	-79.09020	694.14386	-799.55597	-100.28351	541.37323	-224.30983	55.73101	545.24072	-220.02129	-132.89418	576.04865	658.54791	14.84031	575.41956	664.40192	
1786	17.850	-224.20471	11.07744	-164.76479	203.78198	15.07734	-144.29156	-245.51013	36.53804	457.23721	172.06599	41.14974	413.84763	-78.51942	693.87317	-799.79712	-99.44487	541.31195	-224.45819	56.26970	545.11096	-220.24603	-132.04498	576.13257	658.43707	15.77973	575.67554	664.27612	
1787	17.860	-223.07823	11.02009	-164.73441	205.26776	15.18440	-144.34238	-244.57884	36.71646	457.15265	173.34567	41.58344	413.90579	-77.65113	693.42371	-799.73077	-98.34769	541.03522	-224.53462	57.43650	544.89331	-220.41814	-131.01759	576.39752	658.04614	17.10011	575.95618	664.11072	
1788	17.870	-222.17787	10.75717	-164.81137	205.87910	15.51282	-144.25905	-243.60632	36.81998	457.14359	173.97794	41.41122	413.84485	-77.07053	693.00476	-800.06873	-97.31258	540.97827	-224.62340	58.43551	544.66010	-220.75128	-129.95041	576.45190	658.12793	17.95389	576.13501	663.90613	
1789	17.880	-221.27684	10.75651	-164.81477	206.62308	15.20431	-144.57274	-242.46820	36.77876	457.01144	175.45352	41.45494	413.87357	-76.54114	692.25537	-800.05023	-96.59384	540.92981	-224.84935	59.33680	544.51221	-220.74469	-128.59227	576.77631	657.90442	19.06351	576.56891	663.57599	
1790	17.890	-220.27806	10.74320	-164.93181	207.99559	15.02865	-144.56831	-241.76067	37.06804	457.01154	176.04776	41.50681	413.81732	-75.88744	691.74963	-800.29144	-95.38360	540.92236	-225.03436	60.57749	544.21765	-220.52742	-127.86996	577.09558	657.47015	20.33403	576.56445	663.65338	
1791	17.900	-219.35968	10.88107	-165.01213	208.84180	14.84509	-144.52536	-240.82497	37.08725	456.68719	176.73915	41.32544	413.60785	-75.10712	691.14600	-800.41394	-94.34280	540.82288	-225.07770	61.32012	544.09979	-220.71416	-126.41942	577.22070	657.59955	21.32493	576.80591	663.42084	
1792	17.910	-218.57388	10.69440	-165.15750	209.94641	14.97831	-144.29813	-239.57410	36.93545	456.77588	178.47873	41.86413	413.69232	-74.31639	690.40680	-800.62042	-93.31100	540.59442	-225.31299	62.44077	543.89307	-221.02486	-125.47609	577.34369	657.26086	22.32770	577.10693	663.27759	
